<svg height="256" viewBox="0 0 512 512" width="256" xmlns="http://www.w3.org/2000/svg"><g fill="#fff"><path d="m503.556 156.001-18.569-18.561c-11.258-11.266-29.518-11.257-40.776 0l-17.37 17.379 59.346 59.346 17.369-17.369c11.258-11.268 11.258-29.528 0-40.795z"/><path d="m264.082 317.579v59.345h59.346l146.573-146.572-59.345-59.346z"/><path d="m121.111 142.306h167.616v27.936h-167.616z"/><path d="m121.111 244.738h167.616v27.936h-167.616z"/><path d="m121.111 347.17h102.432v27.936h-102.432z"/><path d="m372.589 454.658c0 4.282-3.492 7.766-7.766 7.774h-319.809c-4.274-.008-7.748-3.492-7.766-7.774v-397.314c.018-4.284 3.492-7.766 7.766-7.776h319.809c4.274.009 7.766 3.492 7.766 7.776v112.225l37.248-37.248v-74.977c-.018-24.872-20.133-45.005-45.014-45.024h-319.809c-24.862.019-44.995 20.152-45.014 45.024v397.314c.019 24.871 20.152 45.005 45.014 45.022h319.809c24.881-.018 44.996-20.151 45.014-45.022v-124.639l-37.248 37.248z"/></g></svg>