<svg xmlns="http://www.w3.org/2000/svg" width="40.429" height="37.582" viewBox="0 0 40.429 37.582">
  <g id="icon" transform="translate(-381.531 -1463.02)">
    <g id="グループ_156" data-name="グループ 156">
      <g id="グループ_142" data-name="グループ 142">
        <path id="パス_120" data-name="パス 120" d="M412.137,1470.671a.644.644,0,0,1-.593-.9,3.9,3.9,0,0,0,.31-1.532,3.936,3.936,0,1,0-7.872,0,.644.644,0,0,1-1.288,0,5.224,5.224,0,1,1,10.037,2.034A.646.646,0,0,1,412.137,1470.671Z" fill="#fff"/>
      </g>
      <g id="グループ_143" data-name="グループ 143">
        <path id="パス_121" data-name="パス 121" d="M407.918,1500.6a5.23,5.23,0,0,1-5.224-5.224.644.644,0,1,1,1.288,0,3.936,3.936,0,1,0,7.562-1.533.644.644,0,1,1,1.187-.5,5.228,5.228,0,0,1-4.813,7.258Z" fill="#fff"/>
      </g>
      <g id="グループ_144" data-name="グループ 144">
        <path id="パス_122" data-name="パス 122" d="M412.668,1496.581a.644.644,0,0,1-.046-1.287,8.682,8.682,0,0,0,6.769-13.2.644.644,0,0,1,1.1-.675,9.969,9.969,0,0,1-7.772,15.156Z" fill="#fff"/>
      </g>
      <g id="グループ_145" data-name="グループ 145">
        <path id="パス_123" data-name="パス 123" d="M417.77,1475.818a.645.645,0,0,1-.58-.924,4.89,4.89,0,0,0-4.548-7.008.644.644,0,0,1-.038-1.288,6.222,6.222,0,0,1,2.859.61,6.176,6.176,0,0,1,2.888,8.245A.645.645,0,0,1,417.77,1475.818Z" fill="#fff"/>
      </g>
      <g id="グループ_146" data-name="グループ 146">
        <path id="パス_124" data-name="パス 124" d="M418.43,1484.524a.643.643,0,0,1-.455-1.1,6.991,6.991,0,0,0,0-9.873.644.644,0,1,1,.91-.911,8.28,8.28,0,0,1,0,11.7A.642.642,0,0,1,418.43,1484.524Z" fill="#fff"/>
      </g>
      <g id="グループ_147" data-name="グループ 147">
        <path id="パス_125" data-name="パス 125" d="M403.338,1496.09a.644.644,0,0,1-.644-.644V1468.23a.644.644,0,0,1,1.288,0v27.216A.644.644,0,0,1,403.338,1496.09Z" fill="#fff"/>
      </g>
      <g id="グループ_150" data-name="グループ 150">
        <g id="グループ_148" data-name="グループ 148">
          <path id="パス_126" data-name="パス 126" d="M407.918,1479.642a.644.644,0,0,1-.456-1.1,4.411,4.411,0,0,0,0-6.233.644.644,0,1,1,.911-.91,5.7,5.7,0,0,1,0,8.054A.642.642,0,0,1,407.918,1479.642Z" fill="#fff"/>
        </g>
        <g id="グループ_149" data-name="グループ 149">
          <path id="パス_127" data-name="パス 127" d="M411.895,1479.509a.644.644,0,0,1-.64-.578c-.258-2.514-1.6-2.862-1.658-2.876a.649.649,0,0,1-.487-.764.636.636,0,0,1,.746-.5c.094.018,2.32.491,2.68,4.005a.644.644,0,0,1-.574.707C411.939,1479.508,411.917,1479.509,411.895,1479.509Z" fill="#fff"/>
        </g>
      </g>
      <g id="グループ_153" data-name="グループ 153">
        <g id="グループ_151" data-name="グループ 151">
          <path id="パス_128" data-name="パス 128" d="M412.451,1491.254a.644.644,0,0,1-.3-1.213,2.73,2.73,0,0,0,1.124-3.694.644.644,0,0,1,1.137-.606,4.018,4.018,0,0,1-1.655,5.437A.645.645,0,0,1,412.451,1491.254Z" fill="#fff"/>
        </g>
        <g id="グループ_152" data-name="グループ 152">
          <path id="パス_129" data-name="パス 129" d="M414.339,1489.325c-.055,0-.09,0-.1,0a.645.645,0,0,1,.115-1.284c.045,0,.832-.012,1.408-1.384a.644.644,0,0,1,1.188.5C416.1,1489.177,414.723,1489.325,414.339,1489.325Z" fill="#fff"/>
        </g>
      </g>
      <g id="グループ_154" data-name="グループ 154">
        <path id="パス_130" data-name="パス 130" d="M414.522,1482.983a.645.645,0,0,1-.32-1.2,2.174,2.174,0,0,0,1.058-2.992.644.644,0,0,1,1.139-.6,3.438,3.438,0,0,1-1.557,4.712A.65.65,0,0,1,414.522,1482.983Z" fill="#fff"/>
      </g>
      <g id="グループ_155" data-name="グループ 155">
        <path id="パス_131" data-name="パス 131" d="M410.47,1488.46a.687.687,0,0,1-.188-.028,3.44,3.44,0,0,1-2.23-4.434.644.644,0,1,1,1.243.339,2.174,2.174,0,0,0,1.368,2.864.645.645,0,0,1-.193,1.259Z" fill="#fff"/>
      </g>
    </g>
    <g id="グループ_173" data-name="グループ 173">
      <g id="グループ_171" data-name="グループ 171">
        <g id="グループ_157" data-name="グループ 157">
          <path id="パス_132" data-name="パス 132" d="M395.573,1500.6a5.227,5.227,0,0,1-4.813-7.259.644.644,0,1,1,1.186.5,3.936,3.936,0,1,0,7.563,1.532.644.644,0,1,1,1.288,0A5.231,5.231,0,0,1,395.573,1500.6Z" fill="#fff"/>
        </g>
        <g id="グループ_158" data-name="グループ 158">
          <path id="パス_133" data-name="パス 133" d="M391.354,1470.671a.644.644,0,0,1-.594-.394,5.224,5.224,0,1,1,10.037-2.033.644.644,0,0,1-1.288,0,3.936,3.936,0,1,0-7.563,1.532.644.644,0,0,1-.342.844A.635.635,0,0,1,391.354,1470.671Z" fill="#fff"/>
        </g>
        <g id="グループ_159" data-name="グループ 159">
          <path id="パス_134" data-name="パス 134" d="M383.552,1482.505a.643.643,0,0,1-.549-.306,9.969,9.969,0,0,1,7.772-15.156.644.644,0,0,1,.094,1.284,8.683,8.683,0,0,0-6.769,13.2.644.644,0,0,1-.548.981Z" fill="#fff"/>
        </g>
        <g id="グループ_160" data-name="グループ 160">
          <path id="パス_135" data-name="パス 135" d="M390.7,1497.026a6.21,6.21,0,0,1-2.677-.612,6.175,6.175,0,0,1-2.887-8.245.644.644,0,0,1,1.16.558,4.892,4.892,0,0,0,4.548,7.009.634.634,0,0,1,.663.624.644.644,0,0,1-.624.663Q390.8,1497.026,390.7,1497.026Z" fill="#fff"/>
        </g>
        <g id="グループ_161" data-name="グループ 161">
          <path id="パス_136" data-name="パス 136" d="M385.061,1491.169a.646.646,0,0,1-.456-.188,8.281,8.281,0,0,1,0-11.695.644.644,0,0,1,.911.911,6.991,6.991,0,0,0,0,9.873.643.643,0,0,1-.455,1.1Z" fill="#fff"/>
        </g>
        <g id="グループ_162" data-name="グループ 162">
          <path id="パス_137" data-name="パス 137" d="M400.153,1496.035a.644.644,0,0,1-.644-.644v-27.216a.644.644,0,1,1,1.288,0v27.216A.644.644,0,0,1,400.153,1496.035Z" fill="#fff"/>
        </g>
        <g id="グループ_165" data-name="グループ 165">
          <g id="グループ_163" data-name="グループ 163">
            <path id="パス_138" data-name="パス 138" d="M391.6,1491.169a.642.642,0,0,1-.455-.188,5.7,5.7,0,0,1,0-8.055.644.644,0,0,1,.91.911,4.41,4.41,0,0,0,0,6.233.643.643,0,0,1-.455,1.1Z" fill="#fff"/>
          </g>
          <g id="グループ_164" data-name="グループ 164">
            <path id="パス_139" data-name="パス 139" d="M389.781,1487.6a.656.656,0,0,1-.124-.012c-.1-.019-2.32-.493-2.68-4.006a.644.644,0,1,1,1.281-.132c.26,2.533,1.632,2.871,1.646,2.873a.644.644,0,0,1-.123,1.277Z" fill="#fff"/>
          </g>
        </g>
        <g id="グループ_168" data-name="グループ 168">
          <g id="グループ_166" data-name="グループ 166">
            <path id="パス_140" data-name="パス 140" d="M395.194,1475.584a.644.644,0,0,1-.569-.341,4.023,4.023,0,0,1,1.655-5.437.644.644,0,0,1,.606,1.137,2.734,2.734,0,0,0-1.125,3.694.643.643,0,0,1-.265.871A.632.632,0,0,1,395.194,1475.584Z" fill="#fff"/>
          </g>
          <g id="グループ_167" data-name="グループ 167">
            <path id="パス_141" data-name="パス 141" d="M392.676,1474.726a.643.643,0,0,1-.593-.894c.974-2.319,2.639-2.175,2.711-2.168a.644.644,0,0,1-.115,1.282c-.038-.005-.832.013-1.408,1.385A.645.645,0,0,1,392.676,1474.726Z" fill="#fff"/>
          </g>
        </g>
        <g id="グループ_169" data-name="グループ 169">
          <path id="パス_142" data-name="パス 142" d="M394.333,1483.149a.64.64,0,0,1-.567-.34,3.438,3.438,0,0,1,1.557-4.712.645.645,0,0,1,.64,1.119,2.174,2.174,0,0,0-1.058,2.992.645.645,0,0,1-.572.941Z" fill="#fff"/>
        </g>
        <g id="グループ_170" data-name="グループ 170">
          <path id="パス_143" data-name="パス 143" d="M389.957,1478.748a.627.627,0,0,1-.17-.023.643.643,0,0,1-.452-.79,2.18,2.18,0,0,0-1.365-2.863.644.644,0,0,1,.378-1.232,3.439,3.439,0,0,1,2.23,4.433A.644.644,0,0,1,389.957,1478.748Z" fill="#fff"/>
        </g>
      </g>
      <g id="グループ_172" data-name="グループ 172">
        <path id="パス_144" data-name="パス 144" d="M396.473,1491.169a.645.645,0,0,1-.623-.483c-.14-.543-1.111-.906-1.559-1a.644.644,0,0,1,.256-1.262c.221.044,2.175.48,2.55,1.937a.642.642,0,0,1-.624.8Z" fill="#fff"/>
      </g>
    </g>
  </g>
</svg>
