<svg height="37.582" viewBox="0 0 40.429 37.582" width="40.429" xmlns="http://www.w3.org/2000/svg"><g fill="#fff" transform="translate(-381.531 -1463.02)"><path d="m412.137 1470.671a.644.644 0 0 1 -.593-.9 3.9 3.9 0 0 0 .31-1.532 3.936 3.936 0 1 0 -7.872 0 .644.644 0 0 1 -1.288 0 5.224 5.224 0 1 1 10.037 2.034.646.646 0 0 1 -.594.398z"><path d="m407.918 1500.6a5.23 5.23 0 0 1 -5.224-5.224.644.644 0 1 1 1.288 0 3.936 3.936 0 1 0 7.562-1.533.644.644 0 1 1 1.187-.5 5.228 5.228 0 0 1 -4.813 7.258z"><path d="m412.668 1496.581a.644.644 0 0 1 -.046-1.287 8.682 8.682 0 0 0 6.769-13.2.644.644 0 0 1 1.1-.675 9.969 9.969 0 0 1 -7.772 15.156z"><path d="m417.77 1475.818a.645.645 0 0 1 -.58-.924 4.89 4.89 0 0 0 -4.548-7.008.644.644 0 0 1 -.038-1.288 6.222 6.222 0 0 1 2.859.61 6.176 6.176 0 0 1 2.888 8.245.645.645 0 0 1 -.581.365z"><path d="m418.43 1484.524a.643.643 0 0 1 -.455-1.1 6.991 6.991 0 0 0 0-9.873.644.644 0 1 1 .91-.911 8.28 8.28 0 0 1 0 11.7.642.642 0 0 1 -.455.184z"><path d="m403.338 1496.09a.644.644 0 0 1 -.644-.644v-27.216a.644.644 0 0 1 1.288 0v27.216a.644.644 0 0 1 -.644.644z"><path d="m407.918 1479.642a.644.644 0 0 1 -.456-1.1 4.411 4.411 0 0 0 0-6.233.644.644 0 1 1 .911-.91 5.7 5.7 0 0 1 0 8.054.642.642 0 0 1 -.455.189z"><path d="m411.895 1479.509a.644.644 0 0 1 -.64-.578c-.258-2.514-1.6-2.862-1.658-2.876a.649.649 0 0 1 -.487-.764.636.636 0 0 1 .746-.5c.094.018 2.32.491 2.68 4.005a.644.644 0 0 1 -.574.707c-.023.005-.045.006-.067.006z"><path d="m412.451 1491.254a.644.644 0 0 1 -.3-1.213 2.73 2.73 0 0 0 1.124-3.694.644.644 0 0 1 1.137-.606 4.018 4.018 0 0 1 -1.655 5.437.645.645 0 0 1 -.306.076z"><path d="m414.339 1489.325c-.055 0-.09 0-.1 0a.645.645 0 0 1 .115-1.284c.045 0 .832-.012 1.408-1.384a.644.644 0 0 1 1.188.5c-.85 2.02-2.227 2.168-2.611 2.168z"><path d="m414.522 1482.983a.645.645 0 0 1 -.32-1.2 2.174 2.174 0 0 0 1.058-2.992.644.644 0 0 1 1.139-.6 3.438 3.438 0 0 1 -1.557 4.712.65.65 0 0 1 -.32.08z"><path d="m410.47 1488.46a.687.687 0 0 1 -.188-.028 3.44 3.44 0 0 1 -2.23-4.434.644.644 0 1 1 1.243.339 2.174 2.174 0 0 0 1.368 2.864.645.645 0 0 1 -.193 1.259z"><path d="m395.573 1500.6a5.227 5.227 0 0 1 -4.813-7.259.644.644 0 1 1 1.186.5 3.936 3.936 0 1 0 7.563 1.532.644.644 0 1 1 1.288 0 5.231 5.231 0 0 1 -5.224 5.227z"><path d="m391.354 1470.671a.644.644 0 0 1 -.594-.394 5.224 5.224 0 1 1 10.037-2.033.644.644 0 0 1 -1.288 0 3.936 3.936 0 1 0 -7.563 1.532.644.644 0 0 1 -.342.844.635.635 0 0 1 -.25.051z"><path d="m383.552 1482.505a.643.643 0 0 1 -.549-.306 9.969 9.969 0 0 1 7.772-15.156.644.644 0 0 1 .094 1.284 8.683 8.683 0 0 0 -6.769 13.2.644.644 0 0 1 -.548.981z"><path d="m390.7 1497.026a6.21 6.21 0 0 1 -2.677-.612 6.175 6.175 0 0 1 -2.887-8.245.644.644 0 0 1 1.16.558 4.892 4.892 0 0 0 4.548 7.009.634.634 0 0 1 .663.624.644.644 0 0 1 -.624.663q-.083.003-.183.003z"><path d="m385.061 1491.169a.646.646 0 0 1 -.456-.188 8.281 8.281 0 0 1 0-11.695.644.644 0 0 1 .911.911 6.991 6.991 0 0 0 0 9.873.643.643 0 0 1 -.455 1.1z"><path d="m400.153 1496.035a.644.644 0 0 1 -.644-.644v-27.216a.644.644 0 1 1 1.288 0v27.216a.644.644 0 0 1 -.644.644z"><path d="m391.6 1491.169a.642.642 0 0 1 -.455-.188 5.7 5.7 0 0 1 0-8.055.644.644 0 0 1 .91.911 4.41 4.41 0 0 0 0 6.233.643.643 0 0 1 -.455 1.1z"><path d="m389.781 1487.6a.656.656 0 0 1 -.124-.012c-.1-.019-2.32-.493-2.68-4.006a.644.644 0 1 1 1.281-.132c.26 2.533 1.632 2.871 1.646 2.873a.644.644 0 0 1 -.123 1.277z"><path d="m395.194 1475.584a.644.644 0 0 1 -.569-.341 4.023 4.023 0 0 1 1.655-5.437.644.644 0 0 1 .606 1.137 2.734 2.734 0 0 0 -1.125 3.694.643.643 0 0 1 -.265.871.632.632 0 0 1 -.302.076z"><path d="m392.676 1474.726a.643.643 0 0 1 -.593-.894c.974-2.319 2.639-2.175 2.711-2.168a.644.644 0 0 1 -.115 1.282c-.038-.005-.832.013-1.408 1.385a.645.645 0 0 1 -.595.395z"><path d="m394.333 1483.149a.64.64 0 0 1 -.567-.34 3.438 3.438 0 0 1 1.557-4.712.645.645 0 0 1 .64 1.119 2.174 2.174 0 0 0 -1.058 2.992.645.645 0 0 1 -.572.941z"><path d="m389.957 1478.748a.627.627 0 0 1 -.17-.023.643.643 0 0 1 -.452-.79 2.18 2.18 0 0 0 -1.365-2.863.644.644 0 0 1 .378-1.232 3.439 3.439 0 0 1 2.23 4.433.644.644 0 0 1 -.621.475z"><path d="m396.473 1491.169a.645.645 0 0 1 -.623-.483c-.14-.543-1.111-.906-1.559-1a.644.644 0 0 1 .256-1.262c.221.044 2.175.48 2.55 1.937a.642.642 0 0 1 -.624.8z"></g></svg>