<svg height="37.223" viewBox="0 0 33.733 37.223" width="33.733" xmlns="http://www.w3.org/2000/svg"><g fill="#fff" transform="translate(-3177.755 -1374.353)"><path d="m3195.734 1408.409h-2.225a7.487 7.487 0 0 1 -7.343-5.874l-2.473-10.981a.644.644 0 1 1 1.256-.282l2.473 10.98a6.206 6.206 0 0 0 6.087 4.869h2.225a6.206 6.206 0 0 0 6.087-4.869l2.473-10.98a.644.644 0 1 1 1.256.282l-2.473 10.981a7.486 7.486 0 0 1 -7.343 5.874z"/><path d="m3194.622 1393.85c-1.828 0-10.945-.117-10.945-2.437s9.117-2.437 10.945-2.437 10.944.117 10.944 2.437-9.117 2.437-10.944 2.437zm-9.487-2.437c.874.46 4.09 1.15 9.487 1.15s8.612-.69 9.486-1.15c-.874-.46-4.09-1.15-9.486-1.15s-8.613.69-9.487 1.15z"/><path d="m3194.622 1411.576c-8.382 0-16.867-1.715-16.867-4.992 0-2.814 6.241-4.044 8.924-4.443a.644.644 0 0 1 .189 1.274c-5.742.852-7.826 2.362-7.826 3.169 0 1.547 5.927 3.7 15.58 3.7s15.579-2.157 15.579-3.7c0-.8-2.06-2.3-7.732-3.155a.644.644 0 1 1 .192-1.273c3.3.5 8.827 1.733 8.827 4.428 0 3.277-8.488 4.992-16.866 4.992z"/><path d="m3204.07 1401.095h-1.183a.643.643 0 1 1 0-1.287h1.183a3.7 3.7 0 0 0 3.57-2.741 1.174 1.174 0 0 0 -1.134-1.477h-2.38a.643.643 0 0 1 0-1.287h2.38a2.462 2.462 0 0 1 2.378 3.1 4.991 4.991 0 0 1 -4.814 3.692z"/><path d="m3194.621 1387.229a.645.645 0 0 1 -.477-1.076c.092-.1 2.267-2.591.022-4.836-2.484-2.484-1.107-5.5-.032-6.741a.644.644 0 0 1 .976.84c-.1.114-2.286 2.738-.033 4.991a4.685 4.685 0 0 1 .022 6.61.644.644 0 0 1 -.478.212z"/><path d="m3199.281 1387.658a.643.643 0 0 1 -.507-1.04 2.967 2.967 0 0 0 .02-3.673 4.362 4.362 0 0 1 -.029-5.4.644.644 0 0 1 1.034.767c-.066.09-1.5 2.093-.03 3.8a4.194 4.194 0 0 1 .02 5.305.643.643 0 0 1 -.508.241z"/><path d="m3190.274 1387.658a.644.644 0 0 1 -.477-1.076 2.128 2.128 0 0 0 .022-2.983 3.5 3.5 0 0 1 -.032-4.842.644.644 0 0 1 .976.84 2.253 2.253 0 0 0 -.034 3.092 3.37 3.37 0 0 1 .022 4.757.643.643 0 0 1 -.477.212z"/></g></svg>