<svg xmlns="http://www.w3.org/2000/svg" width="23.216" height="38.059" viewBox="0 0 23.216 38.059">
  <g id="icon" transform="translate(-477.647 -419.402)">
    <g id="グループ_91" data-name="グループ 91">
      <g id="グループ_88" data-name="グループ 88">
        <path id="パス_75" data-name="パス 75" d="M489.168,445.281a5.311,5.311,0,0,1-4.345-2.2.644.644,0,1,1,1.022-.785,4.306,4.306,0,0,0,5.441,1.208l.058-.028A2.06,2.06,0,0,0,492.5,441.3a2.586,2.586,0,0,0-1.778-2.17s-1.672-.5-3.317-.986a3.256,3.256,0,0,1-2.628-3.326,3.1,3.1,0,0,1,1.044-2.371,5.244,5.244,0,0,1,3.555-1.025,4.528,4.528,0,0,1,4.421,3.05.644.644,0,0,1-1.237.359,3.226,3.226,0,0,0-3.2-2.121,4.011,4.011,0,0,0-2.691.705,1.822,1.822,0,0,0-.606,1.417,1.984,1.984,0,0,0,1.705,2.076c1.648.488,3.318.987,3.318.987a3.868,3.868,0,0,1,2.7,3.287,3.39,3.39,0,0,1-1.922,3.477A6.071,6.071,0,0,1,489.168,445.281Z" fill="#fff"/>
      </g>
      <g id="グループ_89" data-name="グループ 89">
        <path id="パス_76" data-name="パス 76" d="M489.367,432.7a.644.644,0,0,1-.645-.644V429.44a.645.645,0,0,1,1.289,0v2.621A.644.644,0,0,1,489.367,432.7Z" fill="#fff"/>
      </g>
      <g id="グループ_90" data-name="グループ 90">
        <path id="パス_77" data-name="パス 77" d="M489.367,448.067a.644.644,0,0,1-.645-.644V444.8a.645.645,0,1,1,1.289,0v2.62A.644.644,0,0,1,489.367,448.067Z" fill="#fff"/>
      </g>
    </g>
    <g id="グループ_94" data-name="グループ 94">
      <g id="グループ_92" data-name="グループ 92">
        <path id="パス_78" data-name="パス 78" d="M497.161,457.461H481.348a3.7,3.7,0,0,1-3.7-3.7V423.1a3.706,3.706,0,0,1,3.7-3.7h15.813a3.707,3.707,0,0,1,3.7,3.7V453.76A3.706,3.706,0,0,1,497.161,457.461ZM481.348,420.69a2.417,2.417,0,0,0-2.413,2.414V453.76a2.416,2.416,0,0,0,2.413,2.413h15.813a2.416,2.416,0,0,0,2.414-2.413V423.1a2.417,2.417,0,0,0-2.414-2.414Z" fill="#fff"/>
      </g>
      <g id="グループ_93" data-name="グループ 93">
        <path id="パス_79" data-name="パス 79" d="M500.219,452.9H478.291a.644.644,0,0,1-.644-.644V424.6a.644.644,0,0,1,.644-.644h21.928a.644.644,0,0,1,.644.644v27.655A.644.644,0,0,1,500.219,452.9Zm-21.284-1.288h20.64V425.248h-20.64Z" fill="#fff"/>
      </g>
    </g>
  </g>
</svg>
