<svg height="38.059" viewBox="0 0 23.216 38.059" width="23.216" xmlns="http://www.w3.org/2000/svg"><g fill="#fff" transform="translate(-477.647 -419.402)"><path d="m489.168 445.281a5.311 5.311 0 0 1 -4.345-2.2.644.644 0 1 1 1.022-.785 4.306 4.306 0 0 0 5.441 1.208l.058-.028a2.06 2.06 0 0 0 1.156-2.176 2.586 2.586 0 0 0 -1.778-2.17s-1.672-.5-3.317-.986a3.256 3.256 0 0 1 -2.628-3.326 3.1 3.1 0 0 1 1.044-2.371 5.244 5.244 0 0 1 3.555-1.025 4.528 4.528 0 0 1 4.421 3.05.644.644 0 0 1 -1.237.359 3.226 3.226 0 0 0 -3.2-2.121 4.011 4.011 0 0 0 -2.691.705 1.822 1.822 0 0 0 -.606 1.417 1.984 1.984 0 0 0 1.705 2.076c1.648.488 3.318.987 3.318.987a3.868 3.868 0 0 1 2.7 3.287 3.39 3.39 0 0 1 -1.922 3.477 6.071 6.071 0 0 1 -2.696.622z"/><path d="m489.367 432.7a.644.644 0 0 1 -.645-.644v-2.616a.645.645 0 0 1 1.289 0v2.621a.644.644 0 0 1 -.644.639z"/><path d="m489.367 448.067a.644.644 0 0 1 -.645-.644v-2.623a.645.645 0 1 1 1.289 0v2.62a.644.644 0 0 1 -.644.647z"/><path d="m497.161 457.461h-15.813a3.7 3.7 0 0 1 -3.7-3.7v-30.661a3.706 3.706 0 0 1 3.7-3.7h15.813a3.707 3.707 0 0 1 3.7 3.7v30.66a3.706 3.706 0 0 1 -3.7 3.701zm-15.813-36.771a2.417 2.417 0 0 0 -2.413 2.414v30.656a2.416 2.416 0 0 0 2.413 2.413h15.813a2.416 2.416 0 0 0 2.414-2.413v-30.66a2.417 2.417 0 0 0 -2.414-2.414z"/><path d="m500.219 452.9h-21.928a.644.644 0 0 1 -.644-.644v-27.656a.644.644 0 0 1 .644-.644h21.928a.644.644 0 0 1 .644.644v27.655a.644.644 0 0 1 -.644.645zm-21.284-1.288h20.64v-26.364h-20.64z"/></g></svg>