<svg xmlns="http://www.w3.org/2000/svg" viewBox="0 0 15 24"><defs><style>.cls-1{fill:none;stroke:#999;stroke-linecap:round;stroke-linejoin:round;}</style></defs><g id="レイヤー_2" data-name="レイヤー 2"><g id="レイヤー_1-2" data-name="レイヤー 1"><g id="レイヤー_2-2" data-name="レイヤー 2"><g id="transport"><line class="cls-1" x1="5.5" y1="21.5" x2="9.5" y2="21.5"/><line class="cls-1" x1="5.5" y1="23.5" x2="9.5" y2="23.5"/><path class="cls-1" d="M14.5,7.5a7,7,0,0,0-7-7H7.38A7.1,7.1,0,0,0,.5,7.24a7,7,0,0,0,2.85,5.89A2.87,2.87,0,0,1,4.5,15.48v2.77c0,.8.45,1.25,1,1.25h4a1,1,0,0,0,1-1v-3a2.87,2.87,0,0,1,1.13-2.34A7,7,0,0,0,14.5,7.5Z"/><line class="cls-1" x1="7.5" y1="10.5" x2="7.5" y2="19.5"/><line class="cls-1" x1="5.5" y1="8.5" x2="7.5" y2="10.5"/><line class="cls-1" x1="9.5" y1="8.5" x2="7.5" y2="10.5"/></g></g></g></g></svg>