<svg xmlns="http://www.w3.org/2000/svg" width="32.156" height="42.378" viewBox="0 0 32.156 42.378">
  <g id="icon" transform="translate(-551.879 -1639.064)">
    <g id="グループ_98" data-name="グループ 98">
      <g id="グループ_96" data-name="グループ 96">
        <path id="パス_80" data-name="パス 80" d="M559.837,1647.667h-7.314a.644.644,0,0,1-.455-1.1l7.314-7.314a.643.643,0,0,1,1.1.455v7.315A.644.644,0,0,1,559.837,1647.667Zm-5.759-1.288h5.115v-5.116Z" fill="#fff"/>
      </g>
      <g id="グループ_97" data-name="グループ 97">
        <path id="パス_81" data-name="パス 81" d="M583.39,1681.442H552.523a.644.644,0,0,1-.644-.644v-33.775a.645.645,0,0,1,.189-.456l7.314-7.314a.644.644,0,0,1,.455-.189H583.39a.645.645,0,0,1,.645.644v41.09A.644.644,0,0,1,583.39,1681.442Zm-30.222-1.288h29.578v-39.8H560.1l-6.936,6.937Z" fill="#fff"/>
      </g>
    </g>
    <g id="グループ_103" data-name="グループ 103">
      <g id="グループ_99" data-name="グループ 99">
        <path id="パス_82" data-name="パス 82" d="M577.806,1652.73h-13.88a.644.644,0,0,1,0-1.289h13.88a.644.644,0,1,1,0,1.289Z" fill="#fff"/>
      </g>
      <g id="グループ_100" data-name="グループ 100">
        <path id="パス_83" data-name="パス 83" d="M577.806,1660.048h-19.7a.644.644,0,1,1,0-1.288h19.7a.644.644,0,1,1,0,1.288Z" fill="#fff"/>
      </g>
      <g id="グループ_101" data-name="グループ 101">
        <path id="パス_84" data-name="パス 84" d="M577.806,1667.366h-19.7a.644.644,0,1,1,0-1.288h19.7a.644.644,0,1,1,0,1.288Z" fill="#fff"/>
      </g>
      <g id="グループ_102" data-name="グループ 102">
        <path id="パス_85" data-name="パス 85" d="M570.657,1674.685h-12.55a.644.644,0,0,1,0-1.288h12.55a.644.644,0,0,1,0,1.288Z" fill="#fff"/>
      </g>
    </g>
  </g>
</svg>
