<svg height="42.378" viewBox="0 0 32.156 42.378" width="32.156" xmlns="http://www.w3.org/2000/svg"><g fill="#fff" transform="translate(-551.879 -1639.064)"><path d="m559.837 1647.667h-7.314a.644.644 0 0 1 -.455-1.1l7.314-7.314a.643.643 0 0 1 1.1.455v7.315a.644.644 0 0 1 -.645.644zm-5.759-1.288h5.115v-5.116z"><path d="m583.39 1681.442h-30.867a.644.644 0 0 1 -.644-.644v-33.775a.645.645 0 0 1 .189-.456l7.314-7.314a.644.644 0 0 1 .455-.189h23.553a.645.645 0 0 1 .645.644v41.09a.644.644 0 0 1 -.645.644zm-30.222-1.288h29.578v-39.8h-22.646l-6.936 6.937z"><path d="m577.806 1652.73h-13.88a.644.644 0 0 1 0-1.289h13.88a.644.644 0 1 1 0 1.289z"><path d="m577.806 1660.048h-19.7a.644.644 0 1 1 0-1.288h19.7a.644.644 0 1 1 0 1.288z"><path d="m577.806 1667.366h-19.7a.644.644 0 1 1 0-1.288h19.7a.644.644 0 1 1 0 1.288z"><path d="m570.657 1674.685h-12.55a.644.644 0 0 1 0-1.288h12.55a.644.644 0 0 1 0 1.288z"></g></svg>