<svg xmlns="http://www.w3.org/2000/svg" width="32.739" height="32.419" viewBox="0 0 32.739 32.419">
  <g id="icon" transform="translate(-1737.374 -2030.355)">
    <g id="グループ_105" data-name="グループ 105">
      <path id="パス_86" data-name="パス 86" d="M1753.744,2054.977a8.092,8.092,0,1,1,8.091-8.091A8.1,8.1,0,0,1,1753.744,2054.977Zm0-14.9a6.8,6.8,0,1,0,6.8,6.8A6.81,6.81,0,0,0,1753.744,2040.082Z" fill="#fff"/>
    </g>
    <g id="グループ_106" data-name="グループ 106">
      <path id="パス_87" data-name="パス 87" d="M1753.744,2035.615a.644.644,0,0,1-.644-.645V2031a.644.644,0,1,1,1.288,0v3.971A.645.645,0,0,1,1753.744,2035.615Z" fill="#fff"/>
    </g>
    <g id="グループ_107" data-name="グループ 107">
      <path id="パス_88" data-name="パス 88" d="M1747.3,2037.506a.644.644,0,0,1-.542-.3l-2.147-3.342a.644.644,0,0,1,1.083-.7l2.147,3.342a.642.642,0,0,1-.193.889A.635.635,0,0,1,1747.3,2037.506Z" fill="#fff"/>
    </g>
    <g id="グループ_108" data-name="グループ 108">
      <path id="パス_89" data-name="パス 89" d="M1742.905,2042.58a.653.653,0,0,1-.268-.058l-3.612-1.65a.644.644,0,1,1,.535-1.172l3.613,1.65a.644.644,0,0,1-.268,1.23Z" fill="#fff"/>
    </g>
    <g id="グループ_109" data-name="グループ 109">
      <path id="パス_90" data-name="パス 90" d="M1738.017,2049.791a.644.644,0,0,1-.091-1.281l3.932-.566a.644.644,0,0,1,.183,1.275l-3.931.565A.568.568,0,0,1,1738.017,2049.791Z" fill="#fff"/>
    </g>
    <g id="グループ_110" data-name="グループ 110">
      <path id="パス_91" data-name="パス 91" d="M1741.737,2057.934a.645.645,0,0,1-.422-1.131l3-2.6a.644.644,0,0,1,.843.973l-3,2.6A.64.64,0,0,1,1741.737,2057.934Z" fill="#fff"/>
    </g>
    <g id="グループ_111" data-name="グループ 111">
      <path id="パス_92" data-name="パス 92" d="M1749.268,2062.774a.683.683,0,0,1-.182-.026.645.645,0,0,1-.436-.8l1.119-3.811a.644.644,0,1,1,1.236.363l-1.119,3.811A.645.645,0,0,1,1749.268,2062.774Z" fill="#fff"/>
    </g>
    <g id="グループ_112" data-name="グループ 112">
      <path id="パス_93" data-name="パス 93" d="M1758.22,2062.774a.644.644,0,0,1-.618-.463l-1.12-3.811a.645.645,0,1,1,1.237-.363l1.119,3.811a.646.646,0,0,1-.437.8A.677.677,0,0,1,1758.22,2062.774Z" fill="#fff"/>
    </g>
    <g id="グループ_113" data-name="グループ 113">
      <path id="パス_94" data-name="パス 94" d="M1765.75,2057.934a.637.637,0,0,1-.421-.158l-3-2.6a.644.644,0,0,1,.844-.973l3,2.6a.645.645,0,0,1-.422,1.131Z" fill="#fff"/>
    </g>
    <g id="グループ_114" data-name="グループ 114">
      <path id="パス_95" data-name="パス 95" d="M1769.47,2049.791a.563.563,0,0,1-.092-.007l-3.932-.565a.644.644,0,1,1,.184-1.275l3.931.566a.644.644,0,0,1-.091,1.281Z" fill="#fff"/>
    </g>
    <g id="グループ_115" data-name="グループ 115">
      <path id="パス_96" data-name="パス 96" d="M1764.583,2042.58a.644.644,0,0,1-.268-1.23l3.613-1.65a.644.644,0,0,1,.535,1.172l-3.613,1.65A.652.652,0,0,1,1764.583,2042.58Z" fill="#fff"/>
    </g>
    <g id="グループ_116" data-name="グループ 116">
      <path id="パス_97" data-name="パス 97" d="M1760.185,2037.506a.644.644,0,0,1-.541-.992l2.147-3.342a.644.644,0,0,1,1.084.7l-2.148,3.342A.644.644,0,0,1,1760.185,2037.506Z" fill="#fff"/>
    </g>
  </g>
</svg>
