<svg height="32.419" viewBox="0 0 32.739 32.419" width="32.739" xmlns="http://www.w3.org/2000/svg"><g fill="#fff" transform="translate(-1737.374 -2030.355)"><path d="m1753.744 2054.977a8.092 8.092 0 1 1 8.091-8.091 8.1 8.1 0 0 1 -8.091 8.091zm0-14.9a6.8 6.8 0 1 0 6.8 6.8 6.81 6.81 0 0 0 -6.8-6.795z"/><path d="m1753.744 2035.615a.644.644 0 0 1 -.644-.645v-3.97a.644.644 0 1 1 1.288 0v3.971a.645.645 0 0 1 -.644.644z"/><path d="m1747.3 2037.506a.644.644 0 0 1 -.542-.3l-2.147-3.342a.644.644 0 0 1 1.083-.7l2.147 3.342a.642.642 0 0 1 -.193.889.635.635 0 0 1 -.348.111z"/><path d="m1742.905 2042.58a.653.653 0 0 1 -.268-.058l-3.612-1.65a.644.644 0 1 1 .535-1.172l3.613 1.65a.644.644 0 0 1 -.268 1.23z"/><path d="m1738.017 2049.791a.644.644 0 0 1 -.091-1.281l3.932-.566a.644.644 0 0 1 .183 1.275l-3.931.565a.568.568 0 0 1 -.093.007z"/><path d="m1741.737 2057.934a.645.645 0 0 1 -.422-1.131l3-2.6a.644.644 0 0 1 .843.973l-3 2.6a.64.64 0 0 1 -.421.158z"/><path d="m1749.268 2062.774a.683.683 0 0 1 -.182-.026.645.645 0 0 1 -.436-.8l1.119-3.811a.644.644 0 1 1 1.236.363l-1.119 3.811a.645.645 0 0 1 -.618.463z"/><path d="m1758.22 2062.774a.644.644 0 0 1 -.618-.463l-1.12-3.811a.645.645 0 1 1 1.237-.363l1.119 3.811a.646.646 0 0 1 -.437.8.677.677 0 0 1 -.181.026z"/><path d="m1765.75 2057.934a.637.637 0 0 1 -.421-.158l-3-2.6a.644.644 0 0 1 .844-.973l3 2.6a.645.645 0 0 1 -.422 1.131z"/><path d="m1769.47 2049.791a.563.563 0 0 1 -.092-.007l-3.932-.565a.644.644 0 1 1 .184-1.275l3.931.566a.644.644 0 0 1 -.091 1.281z"/><path d="m1764.583 2042.58a.644.644 0 0 1 -.268-1.23l3.613-1.65a.644.644 0 0 1 .535 1.172l-3.613 1.65a.652.652 0 0 1 -.267.058z"/><path d="m1760.185 2037.506a.644.644 0 0 1 -.541-.992l2.147-3.342a.644.644 0 0 1 1.084.7l-2.148 3.342a.644.644 0 0 1 -.542.292z"/></g></svg>