<svg xmlns="http://www.w3.org/2000/svg" width="44.352" height="35.775" viewBox="0 0 44.352 35.775">
  <g id="icon" transform="translate(-2908.708 -513.218)">
    <g id="グループ_59" data-name="グループ 59">
      <path id="パス_51" data-name="パス 51" d="M2930.884,533.824a.643.643,0,0,1-.3-.075l-15.169-8.044a.644.644,0,0,1,.006-1.141l15.169-7.832a.649.649,0,0,1,.591,0l15.169,7.832a.643.643,0,0,1,.006,1.141l-15.169,8.044A.642.642,0,0,1,2930.884,533.824Zm-13.78-8.68,13.78,7.307,13.779-7.307-13.779-7.114Z" fill="#fff"/>
    </g>
    <g id="グループ_60" data-name="グループ 60">
      <path id="パス_52" data-name="パス 52" d="M2930.884,548.993a.644.644,0,0,1-.645-.644V533.18a.643.643,0,0,1,.951-.566l6.06,3.283,8.5-4.508a.644.644,0,0,1,.946.569V540.3a.643.643,0,0,1-.343.569l-15.169,8.044A.642.642,0,0,1,2930.884,548.993Zm.644-14.732v13.017l13.88-7.36v-6.889l-7.86,4.168a.645.645,0,0,1-.608,0Z" fill="#fff"/>
    </g>
    <g id="グループ_61" data-name="グループ 61">
      <path id="パス_53" data-name="パス 53" d="M2937.247,537.272a.64.64,0,0,1-.307-.078l-6.363-3.448a.643.643,0,0,1,.005-1.135l15.169-8.044a.645.645,0,0,1,.608,0l6.363,3.448a.643.643,0,0,1,0,1.135l-15.169,8.044A.655.655,0,0,1,2937.247,537.272Zm-5-4.086,5,2.711,13.8-7.319-5-2.711Z" fill="#fff"/>
    </g>
    <g id="グループ_62" data-name="グループ 62">
      <path id="パス_54" data-name="パス 54" d="M2930.884,548.993a.643.643,0,0,1-.3-.075l-15.169-8.044a.641.641,0,0,1-.342-.569v-8.348a.643.643,0,0,1,.945-.569l8.5,4.508,6.058-3.283a.645.645,0,0,1,.951.566v15.17a.644.644,0,0,1-.644.644Zm-14.525-9.075,13.88,7.36V534.261l-5.411,2.932a.644.644,0,0,1-.609,0l-7.86-4.168Z" fill="#fff"/>
    </g>
    <g id="グループ_63" data-name="グループ 63">
      <path id="パス_55" data-name="パス 55" d="M2924.521,537.271a.646.646,0,0,1-.3-.075l-15.169-8.044a.644.644,0,0,1-.005-1.135l6.363-3.448a.647.647,0,0,1,.609,0l15.169,8.043a.645.645,0,0,1-.007,1.142l-6.351,3.441A.642.642,0,0,1,2924.521,537.271Zm-13.806-8.694,13.8,7.319,5-2.711-13.8-7.319Z" fill="#fff"/>
    </g>
    <g id="グループ_64" data-name="グループ 64">
      <path id="パス_56" data-name="パス 56" d="M2915.715,525.779a.632.632,0,0,1-.3-.076l-6.363-3.382a.644.644,0,0,1,0-1.14l15.169-7.891a.648.648,0,0,1,.6.005l6.363,3.442a.644.644,0,0,1-.012,1.139l-15.168,7.831A.643.643,0,0,1,2915.715,525.779Zm-4.979-4.02,4.984,2.649,13.786-7.118-4.991-2.7Z" fill="#fff"/>
    </g>
    <g id="グループ_65" data-name="グループ 65">
      <path id="パス_57" data-name="パス 57" d="M2946.053,525.78a.643.643,0,0,1-.3-.072l-15.169-7.831a.644.644,0,0,1-.011-1.139l6.363-3.442a.648.648,0,0,1,.6-.005l15.169,7.891a.644.644,0,0,1,.005,1.14l-6.363,3.382A.632.632,0,0,1,2946.053,525.78Zm-13.791-8.489,13.786,7.118,4.984-2.649-13.779-7.168Z" fill="#fff"/>
    </g>
  </g>
</svg>
