<svg height="35.775" viewBox="0 0 44.352 35.775" width="44.352" xmlns="http://www.w3.org/2000/svg"><g fill="#fff" transform="translate(-2908.708 -513.218)"><path d="m2930.884 533.824a.643.643 0 0 1 -.3-.075l-15.169-8.044a.644.644 0 0 1 .006-1.141l15.169-7.832a.649.649 0 0 1 .591 0l15.169 7.832a.643.643 0 0 1 .006 1.141l-15.169 8.044a.642.642 0 0 1 -.303.075zm-13.78-8.68 13.78 7.307 13.779-7.307-13.779-7.114z"/><path d="m2930.884 548.993a.644.644 0 0 1 -.645-.644v-15.169a.643.643 0 0 1 .951-.566l6.06 3.283 8.5-4.508a.644.644 0 0 1 .946.569v8.342a.643.643 0 0 1 -.343.569l-15.169 8.044a.642.642 0 0 1 -.3.08zm.644-14.732v13.017l13.88-7.36v-6.889l-7.86 4.168a.645.645 0 0 1 -.608 0z"/><path d="m2937.247 537.272a.64.64 0 0 1 -.307-.078l-6.363-3.448a.643.643 0 0 1 .005-1.135l15.169-8.044a.645.645 0 0 1 .608 0l6.363 3.448a.643.643 0 0 1 0 1.135l-15.169 8.044a.655.655 0 0 1 -.306.078zm-5-4.086 5 2.711 13.8-7.319-5-2.711z"/><path d="m2930.884 548.993a.643.643 0 0 1 -.3-.075l-15.169-8.044a.641.641 0 0 1 -.342-.569v-8.348a.643.643 0 0 1 .945-.569l8.5 4.508 6.058-3.283a.645.645 0 0 1 .951.566v15.17a.644.644 0 0 1 -.644.644zm-14.525-9.075 13.88 7.36v-13.017l-5.411 2.932a.644.644 0 0 1 -.609 0l-7.86-4.168z"/><path d="m2924.521 537.271a.646.646 0 0 1 -.3-.075l-15.169-8.044a.644.644 0 0 1 -.005-1.135l6.363-3.448a.647.647 0 0 1 .609 0l15.169 8.043a.645.645 0 0 1 -.007 1.142l-6.351 3.441a.642.642 0 0 1 -.309.076zm-13.806-8.694 13.8 7.319 5-2.711-13.8-7.319z"/><path d="m2915.715 525.779a.632.632 0 0 1 -.3-.076l-6.363-3.382a.644.644 0 0 1 0-1.14l15.169-7.891a.648.648 0 0 1 .6.005l6.363 3.442a.644.644 0 0 1 -.012 1.139l-15.168 7.831a.643.643 0 0 1 -.289.072zm-4.979-4.02 4.984 2.649 13.786-7.118-4.991-2.7z"/><path d="m2946.053 525.78a.643.643 0 0 1 -.3-.072l-15.169-7.831a.644.644 0 0 1 -.011-1.139l6.363-3.442a.648.648 0 0 1 .6-.005l15.169 7.891a.644.644 0 0 1 .005 1.14l-6.363 3.382a.632.632 0 0 1 -.294.076zm-13.791-8.489 13.786 7.118 4.984-2.649-13.779-7.168z"/></g></svg>