<svg height="39.605" viewBox="0 0 37.889 39.605" width="37.889" xmlns="http://www.w3.org/2000/svg"><g fill="#fff" transform="translate(-1141.813 -1075.429)"><path d="m1164.067 1089.327a.644.644 0 0 1 -.643-.645v-2.611a.642.642 0 0 1 .221-.485l2.756-2.4a11.766 11.766 0 0 0 3.092-4.261l.556-1.312a.4.4 0 0 0 -.727-.351l-.425.777a13.068 13.068 0 0 1 -3.867 4.358 2.974 2.974 0 0 1 -1.733.554h-5.113a2.977 2.977 0 0 1 -1.743-.56 13.083 13.083 0 0 1 -3.829-4.332l-.435-.8a.4.4 0 0 0 -.728.352l.556 1.31a11.771 11.771 0 0 0 3.092 4.262l2.755 2.4a.642.642 0 0 1 .222.486v2.611a.644.644 0 0 1 -1.288 0v-2.318l-2.535-2.206a13.059 13.059 0 0 1 -3.432-4.731l-.556-1.311a1.692 1.692 0 0 1 3.044-1.471l.435.8a11.77 11.77 0 0 0 3.45 3.9 1.7 1.7 0 0 0 .992.319h5.113a1.689 1.689 0 0 0 .986-.315 11.8 11.8 0 0 0 3.484-3.926l.424-.777a1.692 1.692 0 0 1 3.044 1.471l-.556 1.312a13.051 13.051 0 0 1 -3.433 4.73l-2.534 2.206v2.318a.645.645 0 0 1 -.645.646z"/><path d="m1160.74 1081.16a2.866 2.866 0 1 1 2.866-2.865 2.868 2.868 0 0 1 -2.866 2.865zm0-4.443a1.577 1.577 0 1 0 1.578 1.578 1.58 1.58 0 0 0 -1.578-1.578z"/><path d="m1154.658 1115.034a.645.645 0 0 1 -.645-.644v-3.8a2.059 2.059 0 0 0 -2.057-2.057h-6.8a2.06 2.06 0 0 0 -2.058 2.057v3.8a.644.644 0 1 1 -1.288 0v-3.8a3.349 3.349 0 0 1 3.345-3.345h6.8a3.35 3.35 0 0 1 3.347 3.345v3.8a.644.644 0 0 1 -.644.644z"/><path d="m1148.557 1106.692a2.926 2.926 0 1 1 2.926-2.926 2.93 2.93 0 0 1 -2.926 2.926zm0-4.564a1.638 1.638 0 1 0 1.638 1.638 1.64 1.64 0 0 0 -1.638-1.638z"/><path d="m1144.983 1115.034a.644.644 0 0 1 -.644-.644v-3.384a.644.644 0 0 1 1.288 0v3.384a.644.644 0 0 1 -.644.644z"/><path d="m1152.131 1115.034a.644.644 0 0 1 -.644-.644v-3.384a.644.644 0 0 1 1.288 0v3.384a.644.644 0 0 1 -.644.644z"/><path d="m1166.858 1115.034a.644.644 0 0 1 -.644-.644v-3.8a2.06 2.06 0 0 0 -2.058-2.057h-6.8a2.06 2.06 0 0 0 -2.057 2.057v3.8a.645.645 0 0 1 -1.289 0v-3.8a3.35 3.35 0 0 1 3.346-3.345h6.8a3.35 3.35 0 0 1 3.346 3.345v3.8a.644.644 0 0 1 -.644.644z"/><path d="m1160.758 1106.692a2.926 2.926 0 1 1 2.926-2.926 2.929 2.929 0 0 1 -2.926 2.926zm0-4.564a1.638 1.638 0 1 0 1.638 1.638 1.639 1.639 0 0 0 -1.638-1.638z"/><path d="m1157.184 1115.034a.644.644 0 0 1 -.644-.644v-3.384a.644.644 0 0 1 1.288 0v3.384a.644.644 0 0 1 -.644.644z"/><path d="m1164.331 1115.034a.644.644 0 0 1 -.644-.644v-3.384a.644.644 0 0 1 1.288 0v3.384a.644.644 0 0 1 -.644.644z"/><path d="m1179.058 1115.034a.644.644 0 0 1 -.644-.644v-3.8a2.06 2.06 0 0 0 -2.057-2.057h-6.8a2.06 2.06 0 0 0 -2.058 2.057v3.8a.644.644 0 1 1 -1.288 0v-3.8a3.349 3.349 0 0 1 3.345-3.345h6.8a3.349 3.349 0 0 1 3.345 3.345v3.8a.644.644 0 0 1 -.643.644z"/><path d="m1172.958 1106.692a2.926 2.926 0 1 1 2.926-2.926 2.93 2.93 0 0 1 -2.926 2.926zm0-4.564a1.638 1.638 0 1 0 1.638 1.638 1.64 1.64 0 0 0 -1.638-1.638z"/><path d="m1169.385 1115.034a.645.645 0 0 1 -.645-.644v-3.384a.645.645 0 0 1 1.289 0v3.384a.644.644 0 0 1 -.644.644z"/><path d="m1176.532 1115.034a.644.644 0 0 1 -.644-.644v-3.384a.644.644 0 0 1 1.288 0v3.384a.644.644 0 0 1 -.644.644z"/><path d="m1164.525 1098.678h-7.548a.644.644 0 0 1 -.639-.564l-1.155-9.213a.643.643 0 0 1 .639-.724h9.859a.644.644 0 0 1 .639.724l-1.156 9.213a.644.644 0 0 1 -.639.564zm-6.98-1.288h6.412l.994-7.925h-8.4z"/></g></svg>