<svg xmlns="http://www.w3.org/2000/svg" width="37.889" height="39.605" viewBox="0 0 37.889 39.605">
  <g id="icon" transform="translate(-1141.813 -1075.429)">
    <g id="グループ_34" data-name="グループ 34">
      <g id="グループ_32" data-name="グループ 32">
        <path id="パス_36" data-name="パス 36" d="M1164.067,1089.327h0a.644.644,0,0,1-.643-.645l0-2.611a.642.642,0,0,1,.221-.485l2.756-2.4a11.766,11.766,0,0,0,3.092-4.261l.556-1.312a.4.4,0,0,0-.727-.351l-.425.777a13.068,13.068,0,0,1-3.867,4.358,2.974,2.974,0,0,1-1.733.554h-5.113a2.977,2.977,0,0,1-1.743-.56,13.083,13.083,0,0,1-3.829-4.332l-.435-.8a.4.4,0,0,0-.728.352l.556,1.31a11.771,11.771,0,0,0,3.092,4.262l2.755,2.4a.642.642,0,0,1,.222.486v2.611a.644.644,0,0,1-1.288,0v-2.318l-2.535-2.206a13.059,13.059,0,0,1-3.432-4.731l-.556-1.311a1.692,1.692,0,0,1,3.044-1.471l.435.8a11.77,11.77,0,0,0,3.45,3.9,1.7,1.7,0,0,0,.992.319h5.113a1.689,1.689,0,0,0,.986-.315,11.8,11.8,0,0,0,3.484-3.926l.424-.777a1.692,1.692,0,0,1,3.044,1.471l-.556,1.312a13.051,13.051,0,0,1-3.433,4.73l-2.534,2.206,0,2.318A.645.645,0,0,1,1164.067,1089.327Z" fill="#fff"/>
      </g>
      <g id="グループ_33" data-name="グループ 33">
        <path id="パス_37" data-name="パス 37" d="M1160.74,1081.16a2.866,2.866,0,1,1,2.866-2.865A2.868,2.868,0,0,1,1160.74,1081.16Zm0-4.443a1.577,1.577,0,1,0,1.578,1.578A1.58,1.58,0,0,0,1160.74,1076.717Z" fill="#fff"/>
      </g>
    </g>
    <g id="グループ_56" data-name="グループ 56">
      <g id="グループ_41" data-name="グループ 41">
        <g id="グループ_37" data-name="グループ 37">
          <g id="グループ_35" data-name="グループ 35">
            <path id="パス_38" data-name="パス 38" d="M1154.658,1115.034a.645.645,0,0,1-.645-.644v-3.8a2.059,2.059,0,0,0-2.057-2.057h-6.8a2.06,2.06,0,0,0-2.058,2.057v3.8a.644.644,0,1,1-1.288,0v-3.8a3.349,3.349,0,0,1,3.345-3.345h6.8a3.35,3.35,0,0,1,3.347,3.345v3.8A.644.644,0,0,1,1154.658,1115.034Z" fill="#fff"/>
          </g>
          <g id="グループ_36" data-name="グループ 36">
            <path id="パス_39" data-name="パス 39" d="M1148.557,1106.692a2.926,2.926,0,1,1,2.926-2.926A2.93,2.93,0,0,1,1148.557,1106.692Zm0-4.564a1.638,1.638,0,1,0,1.638,1.638A1.64,1.64,0,0,0,1148.557,1102.128Z" fill="#fff"/>
          </g>
        </g>
        <g id="グループ_40" data-name="グループ 40">
          <g id="グループ_38" data-name="グループ 38">
            <path id="パス_40" data-name="パス 40" d="M1144.983,1115.034a.644.644,0,0,1-.644-.644v-3.384a.644.644,0,0,1,1.288,0v3.384A.644.644,0,0,1,1144.983,1115.034Z" fill="#fff"/>
          </g>
          <g id="グループ_39" data-name="グループ 39">
            <path id="パス_41" data-name="パス 41" d="M1152.131,1115.034a.644.644,0,0,1-.644-.644v-3.384a.644.644,0,0,1,1.288,0v3.384A.644.644,0,0,1,1152.131,1115.034Z" fill="#fff"/>
          </g>
        </g>
      </g>
      <g id="グループ_48" data-name="グループ 48">
        <g id="グループ_44" data-name="グループ 44">
          <g id="グループ_42" data-name="グループ 42">
            <path id="パス_42" data-name="パス 42" d="M1166.858,1115.034a.644.644,0,0,1-.644-.644v-3.8a2.06,2.06,0,0,0-2.058-2.057h-6.8a2.06,2.06,0,0,0-2.057,2.057v3.8a.645.645,0,0,1-1.289,0v-3.8a3.35,3.35,0,0,1,3.346-3.345h6.8a3.35,3.35,0,0,1,3.346,3.345v3.8A.644.644,0,0,1,1166.858,1115.034Z" fill="#fff"/>
          </g>
          <g id="グループ_43" data-name="グループ 43">
            <path id="パス_43" data-name="パス 43" d="M1160.758,1106.692a2.926,2.926,0,1,1,2.926-2.926A2.929,2.929,0,0,1,1160.758,1106.692Zm0-4.564a1.638,1.638,0,1,0,1.638,1.638A1.639,1.639,0,0,0,1160.758,1102.128Z" fill="#fff"/>
          </g>
        </g>
        <g id="グループ_47" data-name="グループ 47">
          <g id="グループ_45" data-name="グループ 45">
            <path id="パス_44" data-name="パス 44" d="M1157.184,1115.034a.644.644,0,0,1-.644-.644v-3.384a.644.644,0,0,1,1.288,0v3.384A.644.644,0,0,1,1157.184,1115.034Z" fill="#fff"/>
          </g>
          <g id="グループ_46" data-name="グループ 46">
            <path id="パス_45" data-name="パス 45" d="M1164.331,1115.034a.644.644,0,0,1-.644-.644v-3.384a.644.644,0,0,1,1.288,0v3.384A.644.644,0,0,1,1164.331,1115.034Z" fill="#fff"/>
          </g>
        </g>
      </g>
      <g id="グループ_55" data-name="グループ 55">
        <g id="グループ_51" data-name="グループ 51">
          <g id="グループ_49" data-name="グループ 49">
            <path id="パス_46" data-name="パス 46" d="M1179.058,1115.034a.644.644,0,0,1-.644-.644v-3.8a2.06,2.06,0,0,0-2.057-2.057h-6.8a2.06,2.06,0,0,0-2.058,2.057v3.8a.644.644,0,1,1-1.288,0v-3.8a3.349,3.349,0,0,1,3.345-3.345h6.8a3.349,3.349,0,0,1,3.345,3.345v3.8A.644.644,0,0,1,1179.058,1115.034Z" fill="#fff"/>
          </g>
          <g id="グループ_50" data-name="グループ 50">
            <path id="パス_47" data-name="パス 47" d="M1172.958,1106.692a2.926,2.926,0,1,1,2.926-2.926A2.93,2.93,0,0,1,1172.958,1106.692Zm0-4.564a1.638,1.638,0,1,0,1.638,1.638A1.64,1.64,0,0,0,1172.958,1102.128Z" fill="#fff"/>
          </g>
        </g>
        <g id="グループ_54" data-name="グループ 54">
          <g id="グループ_52" data-name="グループ 52">
            <path id="パス_48" data-name="パス 48" d="M1169.385,1115.034a.645.645,0,0,1-.645-.644v-3.384a.645.645,0,0,1,1.289,0v3.384A.644.644,0,0,1,1169.385,1115.034Z" fill="#fff"/>
          </g>
          <g id="グループ_53" data-name="グループ 53">
            <path id="パス_49" data-name="パス 49" d="M1176.532,1115.034a.644.644,0,0,1-.644-.644v-3.384a.644.644,0,0,1,1.288,0v3.384A.644.644,0,0,1,1176.532,1115.034Z" fill="#fff"/>
          </g>
        </g>
      </g>
    </g>
    <g id="グループ_57" data-name="グループ 57">
      <path id="パス_50" data-name="パス 50" d="M1164.525,1098.678h-7.548a.644.644,0,0,1-.639-.564l-1.155-9.213a.643.643,0,0,1,.639-.724h9.859a.644.644,0,0,1,.639.724l-1.156,9.213A.644.644,0,0,1,1164.525,1098.678Zm-6.98-1.288h6.412l.994-7.925h-8.4Z" fill="#fff"/>
    </g>
  </g>
</svg>
