<svg height="34" viewBox="0 0 34 34" width="34" xmlns="http://www.w3.org/2000/svg"><g fill="#f8f8f8" transform="matrix(0 -1 1 0 0 34)"><path d="m17 33.5c-4.40730953 0-8.55082035-1.71629906-11.66726017-4.83274078-3.11643982-3.11643982-4.83273983-7.25994873-4.83273983-11.66725922 0-4.40730953 1.71630001-8.55082035 4.83273983-11.66726017s7.25995064-4.83273983 11.66726017-4.83273983c4.40731049 0 8.5508194 1.71630001 11.66725922 4.83273983 3.11644172 3.11643982 4.83274078 7.25995064 4.83274078 11.66726017 0 4.40731049-1.71629906 8.5508194-4.83274078 11.66725922-3.11643982 3.11644172-7.25994873 4.83274078-11.66725922 4.83274078z"/><path d="m17 1c-4.27375031 0-8.2917099 1.66428947-11.31370926 4.68629074-3.02200127 3.02199936-4.68629074 7.03995895-4.68629074 11.31370926s1.66428947 8.2917099 4.68629074 11.31370926c3.02199936 3.02200127 7.03995895 4.68629074 11.31370926 4.68629074s8.2917099-1.66428947 11.31370926-4.68629074c3.02200127-3.02199936 4.68629074-7.03995895 4.68629074-11.31370926s-1.66428947-8.2917099-4.68629074-11.31370926c-3.02199936-3.02200127-7.03995895-4.68629074-11.31370926-4.68629074m0-1c9.38883972 0 17 7.61116028 17 17s-7.61116028 17-17 17-17-7.61116028-17-17 7.61116028-17 17-17z" fill="#ccc"/></g><path d="m612.973 598.461v10h-10" fill="none" stroke="#666" transform="matrix(.70710678 -.70710678 .70710678 .70710678 -842.152 20.218)"/></svg>