<svg xmlns="http://www.w3.org/2000/svg" width="34" height="34" viewBox="0 0 34 34">
  <g id="グループ_214" data-name="グループ 214" transform="translate(-286 -5289)">
    <g id="パス_102" data-name="パス 102" transform="translate(286 5323) rotate(-90)" fill="#f8f8f8">
      <path d="M 17 33.5 C 12.59269046783447 33.5 8.449179649353027 31.78370094299316 5.33273983001709 28.66725921630859 C 2.216300010681152 25.55081939697266 0.5 21.40731048583984 0.5 17 C 0.5 12.59269046783447 2.216300010681152 8.449179649353027 5.33273983001709 5.33273983001709 C 8.449179649353027 2.216300010681152 12.59269046783447 0.5 17 0.5 C 21.40731048583984 0.5 25.55081939697266 2.216300010681152 28.66725921630859 5.33273983001709 C 31.78370094299316 8.449179649353027 33.5 12.59269046783447 33.5 17 C 33.5 21.40731048583984 31.78370094299316 25.55081939697266 28.66725921630859 28.66725921630859 C 25.55081939697266 31.78370094299316 21.40731048583984 33.5 17 33.5 Z" stroke="none"/>
      <path d="M 17 1 C 12.72624969482422 1 8.708290100097656 2.664289474487305 5.686290740966797 5.686290740966797 C 2.664289474487305 8.708290100097656 1 12.72624969482422 1 17 C 1 21.27375030517578 2.664289474487305 25.29170989990234 5.686290740966797 28.3137092590332 C 8.708290100097656 31.3357105255127 12.72624969482422 33 17 33 C 21.27375030517578 33 25.29170989990234 31.3357105255127 28.3137092590332 28.3137092590332 C 31.3357105255127 25.29170989990234 33 21.27375030517578 33 17 C 33 12.72624969482422 31.3357105255127 8.708290100097656 28.3137092590332 5.686290740966797 C 25.29170989990234 2.664289474487305 21.27375030517578 1 17 1 M 17 0 C 26.38883972167969 0 34 7.611160278320312 34 17 C 34 26.38883972167969 26.38883972167969 34 17 34 C 7.611160278320312 34 0 26.38883972167969 0 17 C 0 7.611160278320312 7.611160278320312 0 17 0 Z" stroke="none" fill="#ccc"/>
    </g>
    <path id="パス_99" data-name="パス 99" d="M612.973,598.461v10h-10" transform="translate(1162.152 5302.837) rotate(135)" fill="none" stroke="#666" stroke-width="1"/>
  </g>
</svg>
