<svg height="18.443" viewBox="0 0 18.495 18.443" width="18.495" xmlns="http://www.w3.org/2000/svg"><g fill="#fff" stroke="#fff"><path d="m1498.5 1089.4a.272.272 0 0 1 -.272-.272v-6.015a5.742 5.742 0 1 0 -11.485 0v6.015a.272.272 0 1 1 -.544 0v-6.015a6.286 6.286 0 1 1 12.573 0v6.015a.272.272 0 0 1 -.272.272z" transform="translate(-1483.236 -1076.324)"><path d="m1483.1 1099.5h-1.419a1.316 1.316 0 0 1 -1.314-1.314v-2.56a1.315 1.315 0 0 1 1.314-1.314h1.419a.272.272 0 0 1 .272.272v4.645a.272.272 0 0 1 -.272.271zm-1.419-4.645a.771.771 0 0 0 -.771.77v2.56a.771.771 0 0 0 .771.77h1.147v-4.1z" transform="translate(-1479.867 -1086.432)"><path d="m1516.381 1099.5h-1.419a.272.272 0 0 1 -.272-.272v-4.645a.272.272 0 0 1 .272-.272h1.419a1.315 1.315 0 0 1 1.314 1.314v2.56a1.316 1.316 0 0 1 -1.314 1.315zm-1.147-.544h1.147a.771.771 0 0 0 .771-.77v-2.56a.771.771 0 0 0 -.771-.77h-1.147z" transform="translate(-1499.7 -1086.432)"><path d="m1497.375 1114.918a1.178 1.178 0 1 1 1.178-1.178 1.179 1.179 0 0 1 -1.178 1.178zm0-1.812a.634.634 0 1 0 .634.634.635.635 0 0 0 -.634-.634z" transform="translate(-1489.014 -1096.975)"><path d="m1490.69 1109.825h-.257a4.241 4.241 0 0 1 -4.236-4.236.272.272 0 1 1 .544 0 3.7 3.7 0 0 0 3.693 3.692h.257a.272.272 0 1 1 0 .544z" transform="translate(-1483.236 -1092.788)"></g></svg>