<svg xmlns="http://www.w3.org/2000/svg" width="18.495" height="18.443" viewBox="0 0 18.495 18.443">
  <g id="tel-icon" transform="translate(-1479.867 -1076.324)" style="isolation: isolate">
    <g id="グループ_1" data-name="グループ 1" transform="translate(1482.828 1076.824)">
      <path id="パス_9" data-name="パス 9" d="M1498.5,1089.4a.272.272,0,0,1-.272-.272v-6.015a5.742,5.742,0,1,0-11.485,0v6.015a.272.272,0,1,1-.544,0v-6.015a6.286,6.286,0,1,1,12.573,0v6.015A.272.272,0,0,1,1498.5,1089.4Z" transform="translate(-1486.197 -1076.824)" fill="#fff" stroke="#fff" stroke-width="1"/>
    </g>
    <g id="グループ_2" data-name="グループ 2" transform="translate(1480.367 1084.208)">
      <path id="パス_10" data-name="パス 10" d="M1483.1,1099.5h-1.419a1.316,1.316,0,0,1-1.314-1.314v-2.56a1.315,1.315,0,0,1,1.314-1.314h1.419a.272.272,0,0,1,.272.272v4.645A.272.272,0,0,1,1483.1,1099.5Zm-1.419-4.645a.771.771,0,0,0-.771.77v2.56a.771.771,0,0,0,.771.77h1.147v-4.1Z" transform="translate(-1480.367 -1094.316)" fill="#fff" stroke="#fff" stroke-width="1"/>
    </g>
    <g id="グループ_3" data-name="グループ 3" transform="translate(1494.857 1084.208)">
      <path id="パス_11" data-name="パス 11" d="M1516.381,1099.5h-1.419a.272.272,0,0,1-.272-.272v-4.645a.272.272,0,0,1,.272-.272h1.419a1.315,1.315,0,0,1,1.314,1.314v2.56A1.316,1.316,0,0,1,1516.381,1099.5Zm-1.147-.544h1.147a.771.771,0,0,0,.771-.77v-2.56a.771.771,0,0,0-.771-.77h-1.147Z" transform="translate(-1514.69 -1094.316)" fill="#fff" stroke="#fff" stroke-width="1"/>
    </g>
    <g id="グループ_4" data-name="グループ 4" transform="translate(1487.05 1091.911)">
      <path id="パス_12" data-name="パス 12" d="M1497.375,1114.918a1.178,1.178,0,1,1,1.178-1.178A1.179,1.179,0,0,1,1497.375,1114.918Zm0-1.812a.634.634,0,1,0,.634.634A.635.635,0,0,0,1497.375,1113.106Z" transform="translate(-1496.197 -1112.562)" fill="#fff" stroke="#fff" stroke-width="1"/>
    </g>
    <g id="グループ_5" data-name="グループ 5" transform="translate(1482.828 1088.853)">
      <path id="パス_13" data-name="パス 13" d="M1490.69,1109.825h-.257a4.241,4.241,0,0,1-4.236-4.236.272.272,0,1,1,.544,0,3.7,3.7,0,0,0,3.693,3.692h.257a.272.272,0,1,1,0,.544Z" transform="translate(-1486.197 -1105.317)" fill="#fff" stroke="#fff" stroke-width="1"/>
    </g>
  </g>
</svg>
