<svg xmlns="http://www.w3.org/2000/svg" width="34.661" height="39.104" viewBox="0 0 34.661 39.104">
  <g id="icon" transform="translate(-1068.886 -1850.918)">
    <g id="グループ_139" data-name="グループ 139">
      <g id="グループ_136" data-name="グループ 136">
        <path id="パス_117" data-name="パス 117" d="M1092.448,1890.022l-.107,0a1.922,1.922,0,0,1-1.813-1.923l.012-5.72a2.305,2.305,0,0,0-1.122-1.978l-4.146-2.469-3.294,4.329a3.591,3.591,0,0,1-1.462,1.134l-8.888,3.738a1.823,1.823,0,0,1-2.242-.691l-.207-.32a1.826,1.826,0,0,1,.678-2.607l7.795-4.132a2.308,2.308,0,0,0,1.01-1.068l3.12-6.763a.644.644,0,0,1,1.17.54l-3.12,6.763a3.619,3.619,0,0,1-1.576,1.666l-7.8,4.132a.539.539,0,0,0-.2.769l.207.32a.54.54,0,0,0,.662.2l8.887-3.739a2.3,2.3,0,0,0,.937-.726l3.643-4.786a.643.643,0,0,1,.842-.164l4.639,2.763a3.6,3.6,0,0,1,1.751,3.088l-.012,5.72a.635.635,0,0,0,.6.634.646.646,0,0,0,.663-.546l.947-6.838a2.3,2.3,0,0,0-.744-2.028l-3.959-3.539a3.669,3.669,0,0,1-1.025-3.945l3.023-8.727a.647.647,0,0,1,.422-.406.64.64,0,0,1,.576.1,19.262,19.262,0,0,0,8.045,3.569l1.257.237a.543.543,0,0,0,.549-.232.539.539,0,0,0-.285-.811l-2.443-.786a20.435,20.435,0,0,1-5.393-2.664l-3.995-3.122a.644.644,0,1,1,.793-1.014l3.966,3.1a19.136,19.136,0,0,0,5.023,2.474l2.444.785a1.827,1.827,0,0,1-.9,3.535l-1.257-.236a20.573,20.573,0,0,1-7.872-3.291l-2.739,7.906a2.388,2.388,0,0,0,.666,2.564l3.959,3.539a3.578,3.578,0,0,1,1.162,3.164l-.948,6.839A1.933,1.933,0,0,1,1092.448,1890.022Z" fill="#fff"/>
      </g>
      <g id="グループ_137" data-name="グループ 137">
        <path id="パス_118" data-name="パス 118" d="M1082.367,1872.463a.645.645,0,0,1-.629-.781l1.813-8.326a34.735,34.735,0,0,0-5.718,4.768l-.836.865a1.826,1.826,0,0,1-2.861-.3l-.192-.3a1.831,1.831,0,0,1,.207-2.214l.53-.573a33.933,33.933,0,0,1,9.79-7.339l1.9-.949a.644.644,0,1,1,.575,1.153l-1.9.949a32.644,32.644,0,0,0-9.42,7.062l-.53.572a.54.54,0,0,0-.061.653l.191.3a.541.541,0,0,0,.845.088l.836-.866a36.1,36.1,0,0,1,7.269-5.8.644.644,0,0,1,.962.689l-2.142,9.834A.644.644,0,0,1,1082.367,1872.463Z" fill="#fff"/>
      </g>
      <g id="グループ_138" data-name="グループ 138">
        <path id="パス_119" data-name="パス 119" d="M1089.5,1859.271c-.08,0-.159,0-.24-.007a4.176,4.176,0,1,1,4.405-3.935h0a4.178,4.178,0,0,1-4.165,3.942Zm-.009-7.065a2.888,2.888,0,1,0,2.887,3.051h0a2.888,2.888,0,0,0-2.721-3.046C1089.6,1852.208,1089.542,1852.206,1089.487,1852.206Z" fill="#fff"/>
      </g>
    </g>
  </g>
</svg>
