<svg xmlns="http://www.w3.org/2000/svg" width="39.789" height="37.901" viewBox="0 0 39.789 37.901">
  <g id="icon" transform="translate(-382.932 -690.091)">
    <g id="グループ_76" data-name="グループ 76" transform="translate(382.932 690.091)">
      <g id="グループ_71" data-name="グループ 71">
        <path id="パス_61" data-name="パス 61" d="M419.765,719.384H385.888a2.959,2.959,0,0,1-2.956-2.956V693.047a2.959,2.959,0,0,1,2.956-2.956h33.877a2.96,2.96,0,0,1,2.956,2.956v23.382A2.959,2.959,0,0,1,419.765,719.384Zm-33.877-28.1a1.768,1.768,0,0,0-1.765,1.766v23.382a1.767,1.767,0,0,0,1.765,1.765h33.877a1.768,1.768,0,0,0,1.766-1.765V693.047a1.768,1.768,0,0,0-1.766-1.766Z" transform="translate(-382.932 -690.091)" fill="#fff"/>
      </g>
      <g id="グループ_72" data-name="グループ 72" transform="translate(7.646 28.103)">
        <path id="パス_62" data-name="パス 62" d="M391.8,730.236a.6.6,0,0,1-.6-.6V721.1a.6.6,0,0,1,1.19,0v8.546A.6.6,0,0,1,391.8,730.236Z" transform="translate(-391.205 -720.5)" fill="#fff"/>
      </g>
      <g id="グループ_73" data-name="グループ 73" transform="translate(30.952 28.103)">
        <path id="パス_63" data-name="パス 63" d="M417.019,730.236a.6.6,0,0,1-.6-.6V721.1a.6.6,0,0,1,1.19,0v8.546A.6.6,0,0,1,417.019,730.236Z" transform="translate(-416.424 -720.5)" fill="#fff"/>
      </g>
      <g id="グループ_74" data-name="グループ 74" transform="translate(26.679 36.711)">
        <path id="パス_64" data-name="パス 64" d="M420.942,731H412.4a.6.6,0,1,1,0-1.19h8.546a.6.6,0,0,1,0,1.19Z" transform="translate(-411.8 -729.814)" fill="#fff"/>
      </g>
      <g id="グループ_75" data-name="グループ 75" transform="translate(3.373 36.711)">
        <path id="パス_65" data-name="パス 65" d="M395.723,731h-8.546a.6.6,0,1,1,0-1.19h8.546a.6.6,0,0,1,0,1.19Z" transform="translate(-386.582 -729.814)" fill="#fff"/>
      </g>
    </g>
    <g id="グループ_77" data-name="グループ 77" transform="translate(405.235 698.796)">
      <path id="パス_66" data-name="パス 66" d="M407.659,706.61a.595.595,0,0,1-.437-1l5.448-5.91a.6.6,0,1,1,.875.807l-5.448,5.91A.592.592,0,0,1,407.659,706.61Z" transform="translate(-407.065 -699.51)" fill="#fff"/>
    </g>
    <g id="グループ_78" data-name="グループ 78" transform="translate(398.708 702.952)">
      <path id="パス_67" data-name="パス 67" d="M404.42,707.407a.586.586,0,0,1-.3-.079l-3.824-2.209a.6.6,0,0,1,.6-1.031l3.823,2.21a.595.595,0,0,1-.3,1.11Z" transform="translate(-400.002 -704.008)" fill="#fff"/>
    </g>
    <g id="グループ_79" data-name="グループ 79" transform="translate(389.402 703.29)">
      <path id="パス_68" data-name="パス 68" d="M390.529,711.707a.6.6,0,0,1-.41-1.028l6.484-6.144a.6.6,0,0,1,.819.865l-6.484,6.143A.591.591,0,0,1,390.529,711.707Z" transform="translate(-389.933 -704.373)" fill="#fff"/>
    </g>
    <g id="グループ_80" data-name="グループ 80" transform="translate(395.523 700.422)">
      <path id="パス_69" data-name="パス 69" d="M398.8,705.766a2.248,2.248,0,1,1,2.248-2.248A2.251,2.251,0,0,1,398.8,705.766Zm0-3.306a1.058,1.058,0,1,0,1.057,1.057A1.059,1.059,0,0,0,398.8,702.46Z" transform="translate(-396.556 -701.27)" fill="#fff"/>
    </g>
    <g id="グループ_81" data-name="グループ 81" transform="translate(402.366 704.384)">
      <path id="パス_70" data-name="パス 70" d="M406.21,710.053a2.248,2.248,0,1,1,2.248-2.248A2.25,2.25,0,0,1,406.21,710.053Zm0-3.306a1.058,1.058,0,1,0,1.057,1.058A1.059,1.059,0,0,0,406.21,706.747Z" transform="translate(-403.961 -705.557)" fill="#fff"/>
    </g>
    <g id="グループ_82" data-name="グループ 82" transform="translate(410.236 695.835)">
      <path id="パス_71" data-name="パス 71" d="M414.725,700.8a2.248,2.248,0,1,1,2.248-2.248A2.25,2.25,0,0,1,414.725,700.8Zm0-3.306a1.058,1.058,0,1,0,1.057,1.058A1.06,1.06,0,0,0,414.725,697.5Z" transform="translate(-412.476 -696.306)" fill="#fff"/>
    </g>
    <g id="グループ_86" data-name="グループ 86" transform="translate(387.39 695.172)">
      <g id="グループ_83" data-name="グループ 83" transform="translate(1.751)">
        <path id="パス_72" data-name="パス 72" d="M416.178,714.7H390.245a.6.6,0,0,1-.6-.6V696.184a.6.6,0,0,1,1.19,0v17.323h25.338a.6.6,0,0,1,0,1.19Z" transform="translate(-389.65 -695.589)" fill="#fff"/>
      </g>
      <g id="グループ_84" data-name="グループ 84" transform="translate(0 0.008)">
        <path id="パス_73" data-name="パス 73" d="M391.852,698.531a.594.594,0,0,1-.421-.175l-1.329-1.33-1.33,1.33a.6.6,0,0,1-.842-.842l1.75-1.75a.614.614,0,0,1,.842,0l1.75,1.75a.6.6,0,0,1-.421,1.017Z" transform="translate(-387.756 -695.597)" fill="#fff"/>
      </g>
      <g id="グループ_85" data-name="グループ 85" transform="translate(25.933 16.168)">
        <path id="パス_74" data-name="パス 74" d="M416.412,717.774a.6.6,0,0,1-.421-1.017l1.33-1.329-1.33-1.33a.6.6,0,1,1,.842-.841l1.75,1.75a.595.595,0,0,1,0,.842l-1.75,1.749A.592.592,0,0,1,416.412,717.774Z" transform="translate(-415.817 -713.083)" fill="#fff"/>
      </g>
    </g>
  </g>
</svg>
