<svg height="37.901" viewBox="0 0 39.789 37.901" width="39.789" xmlns="http://www.w3.org/2000/svg"><g fill="#fff"><path d="m419.765 719.384h-33.877a2.959 2.959 0 0 1 -2.956-2.956v-23.381a2.959 2.959 0 0 1 2.956-2.956h33.877a2.96 2.96 0 0 1 2.956 2.956v23.382a2.959 2.959 0 0 1 -2.956 2.955zm-33.877-28.1a1.768 1.768 0 0 0 -1.765 1.766v23.382a1.767 1.767 0 0 0 1.765 1.765h33.877a1.768 1.768 0 0 0 1.766-1.765v-23.385a1.768 1.768 0 0 0 -1.766-1.766z" transform="translate(-382.932 -690.091)"/><path d="m391.8 730.236a.6.6 0 0 1 -.6-.6v-8.536a.6.6 0 0 1 1.19 0v8.546a.6.6 0 0 1 -.59.59z" transform="translate(-383.559 -692.397)"/><path d="m417.019 730.236a.6.6 0 0 1 -.6-.6v-8.536a.6.6 0 0 1 1.19 0v8.546a.6.6 0 0 1 -.59.59z" transform="translate(-385.472 -692.397)"/><path d="m420.942 731h-8.542a.6.6 0 1 1 0-1.19h8.546a.6.6 0 0 1 0 1.19z" transform="translate(-385.121 -693.103)"/><path d="m395.723 731h-8.546a.6.6 0 1 1 0-1.19h8.546a.6.6 0 0 1 0 1.19z" transform="translate(-383.209 -693.103)"/><path d="m407.659 706.61a.595.595 0 0 1 -.437-1l5.448-5.91a.6.6 0 1 1 .875.807l-5.448 5.91a.592.592 0 0 1 -.438.193z" transform="translate(-384.762 -690.805)"/><path d="m404.42 707.407a.586.586 0 0 1 -.3-.079l-3.824-2.209a.6.6 0 0 1 .6-1.031l3.823 2.21a.595.595 0 0 1 -.3 1.11z" transform="translate(-384.226 -691.147)"/><path d="m390.529 711.707a.6.6 0 0 1 -.41-1.028l6.484-6.144a.6.6 0 0 1 .819.865l-6.484 6.143a.591.591 0 0 1 -.409.164z" transform="translate(-383.463 -691.174)"/><path d="m398.8 705.766a2.248 2.248 0 1 1 2.248-2.248 2.251 2.251 0 0 1 -2.248 2.248zm0-3.306a1.058 1.058 0 1 0 1.057 1.057 1.059 1.059 0 0 0 -1.057-1.057z" transform="translate(-383.965 -690.939)"/><path d="m406.21 710.053a2.248 2.248 0 1 1 2.248-2.248 2.25 2.25 0 0 1 -2.248 2.248zm0-3.306a1.058 1.058 0 1 0 1.057 1.058 1.059 1.059 0 0 0 -1.057-1.058z" transform="translate(-384.527 -691.264)"/><path d="m414.725 700.8a2.248 2.248 0 1 1 2.248-2.248 2.25 2.25 0 0 1 -2.248 2.248zm0-3.306a1.058 1.058 0 1 0 1.057 1.058 1.06 1.06 0 0 0 -1.057-1.052z" transform="translate(-385.172 -690.562)"/><path d="m416.178 714.7h-25.933a.6.6 0 0 1 -.6-.6v-17.916a.6.6 0 0 1 1.19 0v17.323h25.338a.6.6 0 0 1 0 1.19z" transform="translate(-383.441 -690.508)"/><path d="m391.852 698.531a.594.594 0 0 1 -.421-.175l-1.329-1.33-1.33 1.33a.6.6 0 0 1 -.842-.842l1.75-1.75a.614.614 0 0 1 .842 0l1.75 1.75a.6.6 0 0 1 -.421 1.017z" transform="translate(-383.298 -690.508)"/><path d="m416.412 717.774a.6.6 0 0 1 -.421-1.017l1.33-1.329-1.33-1.33a.6.6 0 1 1 .842-.841l1.75 1.75a.595.595 0 0 1 0 .842l-1.75 1.749a.592.592 0 0 1 -.421.176z" transform="translate(-385.426 -691.834)"/></g></svg>