<svg xmlns="http://www.w3.org/2000/svg" width="42.121" height="31.466" viewBox="0 0 42.121 31.466">
  <g id="icon" transform="translate(-1479.839 -1555.22)">
    <g id="グループ_10" data-name="グループ 10">
      <g id="グループ_7" data-name="グループ 7">
        <path id="パス_16" data-name="パス 16" d="M1507.505,1578.776a.643.643,0,0,1-.456-.189,8.7,8.7,0,0,0-12.3,0,.644.644,0,0,1-.911-.911,9.984,9.984,0,0,1,14.121,0,.644.644,0,0,1-.455,1.1Z" fill="#fff"/>
      </g>
      <g id="グループ_8" data-name="グループ 8">
        <path id="パス_17" data-name="パス 17" d="M1514.5,1571.779a.642.642,0,0,1-.455-.189,18.593,18.593,0,0,0-26.293,0,.644.644,0,0,1-.911-.911,19.882,19.882,0,0,1,28.115,0,.645.645,0,0,1-.456,1.1Z" fill="#fff"/>
      </g>
      <g id="グループ_9" data-name="グループ 9">
        <path id="パス_18" data-name="パス 18" d="M1480.483,1564.965a.644.644,0,0,1-.455-1.1,29.517,29.517,0,0,1,41.743,0,.644.644,0,0,1-.911.911,28.228,28.228,0,0,0-39.921,0A.643.643,0,0,1,1480.483,1564.965Z" fill="#fff"/>
      </g>
    </g>
    <g id="グループ_11" data-name="グループ 11">
      <path id="パス_19" data-name="パス 19" d="M1500.9,1586.686a2.728,2.728,0,1,1,2.728-2.728A2.73,2.73,0,0,1,1500.9,1586.686Zm0-4.167a1.439,1.439,0,1,0,1.44,1.439A1.441,1.441,0,0,0,1500.9,1582.519Z" fill="#fff"/>
    </g>
  </g>
</svg>
