<svg height="31.466" viewBox="0 0 42.121 31.466" width="42.121" xmlns="http://www.w3.org/2000/svg"><g fill="#fff" transform="translate(-1479.839 -1555.22)"><path d="m1507.505 1578.776a.643.643 0 0 1 -.456-.189 8.7 8.7 0 0 0 -12.3 0 .644.644 0 0 1 -.911-.911 9.984 9.984 0 0 1 14.121 0 .644.644 0 0 1 -.455 1.1z"/><path d="m1514.5 1571.779a.642.642 0 0 1 -.455-.189 18.593 18.593 0 0 0 -26.293 0 .644.644 0 0 1 -.911-.911 19.882 19.882 0 0 1 28.115 0 .645.645 0 0 1 -.456 1.1z"/><path d="m1480.483 1564.965a.644.644 0 0 1 -.455-1.1 29.517 29.517 0 0 1 41.743 0 .644.644 0 0 1 -.911.911 28.228 28.228 0 0 0 -39.921 0 .643.643 0 0 1 -.456.189z"/><path d="m1500.9 1586.686a2.728 2.728 0 1 1 2.728-2.728 2.73 2.73 0 0 1 -2.728 2.728zm0-4.167a1.439 1.439 0 1 0 1.44 1.439 1.441 1.441 0 0 0 -1.44-1.439z"/></g></svg>